<svg xmlns="http://www.w3.org/2000/svg" viewBox="0 0 344.12 343.93"><defs><style>.cls-1{fill:#534e56;}.cls-2{fill:#050505;}.cls-3{fill:#fff;}.cls-4{fill:#7fb2f9;}.cls-5{fill:#b03945;}.cls-6{fill:#d94a54;}.cls-7{fill:#010101;}</style></defs><title>3d-logo</title><g id="Слой_2" data-name="Слой 2"><g id="Слой_1-2" data-name="Слой 1"><path class="cls-1" d="M323.28,11.58c.5,3.79,1.43,7.58,1.43,11.36q.12,147.09,0,294.17c0,5.14-1,10.29-1.47,15.43-1.5,0-3,.15-4.49.15H21.65c-8.09,0-10.43-2.35-10.43-10.5V21.72c0-8,2.19-10.26,10.1-10.26H319.17C320.54,11.46,321.91,11.54,323.28,11.58ZM172,302.77H288c9.7,0,15-5.3,15-15,0-25.07-.47-50.15.22-75.2.3-10.79-2.5-18-13.5-20.57-2.49-.59-3.12-2.27-3.08-4.74.14-8.23.61-16.52-.12-24.68-.64-7.23,1.56-11.28,8.68-13.16,5.69-1.5,7.85-5.89,7.84-11.69-.08-27.31,0-54.63,0-81.94,0-9.06-5.2-14.73-14.16-14.83-16-.18-31.93-.09-47.9,0-5,0-8.82,2.21-10.8,7.1-1.55,3.81-3.06,7.65-4.94,11.29a4.84,4.84,0,0,1-3.5,2.33c-33.05.13-66.1.08-99.15.15a3.57,3.57,0,0,1-3.86-2.64c-1.35-3.48-3-6.86-4.31-10.34-2.17-5.65-6.32-8-12.2-7.94-15.34.06-30.68,0-46,0-9.69,0-15,5.46-15,15.11q0,115.8-.1,231.61c0,7.77,5.17,15.33,15.36,15.25C94.93,302.58,133.47,302.78,172,302.77Zm.19-249.9c0,.17,16.38-1.18,24.61-1.26,9.53-.08,13.43-2.25,13.44-11.69,0-3.62.05-7.23,0-10.85-.12-6-4.28-10.62-10.26-10.67q-27.85-.22-55.71,0c-6,.05-10.23,4.62-10.34,10.6-.08,4.48-.09,9,0,13.46.13,5.87,3.33,10,9.17,10.3C152.77,53.21,162.5,52.87,172.2,52.87ZM313.41,171.35h.15c-.14-3.1-.06-6.22-.49-9.28s-2.42-4.75-5.71-4.64c-3.12.1-5,1.71-5.18,4.72-.28,5.82-.5,11.66-.21,17.46.21,4.21,2.29,5.83,5.83,5.74,3.32-.1,5.33-2.2,5.58-6.17C313.54,176.58,313.41,174,313.41,171.35ZM29.32,32.53c3.47,0,6.17-2.28,6.34-5.47s-2.43-5.67-5.94-5.77-6.35,2.13-6.5,5.2C23.05,29.88,25.67,32.47,29.32,32.53ZM314.86,21.29c-3.59-.06-6.19,2.12-6.36,5.34s2.54,5.77,5.89,5.89c3.69.14,6.38-2.16,6.54-5.6C321.07,23.86,318.37,21.35,314.86,21.29Zm.9,288.16c-3.85,0-6,1.9-6,5.43a5.68,5.68,0,0,0,5.9,5.78,5.83,5.83,0,0,0,6.15-5.61C321.87,311.84,319.32,309.47,315.76,309.45ZM29.31,311.63c-3.49,0-6.23,2.54-6.1,5.58s3.27,5.71,6.36,5.65,6-2.82,6.1-5.52C35.78,314,33.07,311.59,29.31,311.63Z"/><path class="cls-2" d="M291.9,215.26c-.6,23.81-.29,47.65-.14,71.47,0,3.78-1.07,4.94-4.88,4.86-11.35-.23-22.7-.07-34-.06h-3.89c0-5.82,0-11.28,0-16.75,0-16.81-9.6-26.33-26.51-26.35H209.19c0-7.54.16-14.73-.06-21.9-.17-5.7-3.64-9.07-9.37-9.79-13.93-1.73-19.88-7.69-21.7-21.71-.73-5.6-3.69-9.14-8.91-9.39a122.07,122.07,0,0,0-19,.3c-8.06.87-14,7.34-14.89,15.43a77.67,77.67,0,0,0-.28,8.22c0,3.8,1.76,6.11,5.64,6.62,4.06-.54,5.55-3,5.65-6.92.3-11.92,1.48-13,13.47-12.61a8.33,8.33,0,0,1,1.1.16h6c2.49,17.94,12.45,28.93,31.07,31.13,0,4.8.15,9.28,0,13.75-.13,3.07-1.59,5.46-4.86,6.26-3.72.15-7.45.39-11.17.42q-13.65.09-27.31,0c-5.82,0-8.18-2.38-8.34-8.13-.06-1.87-.12-3.74,0-5.61.27-4.12-1.48-6.67-5.57-7.52-4.1.81-5.83,3.34-5.71,7.46.12,4.45,0,8.9,0,13.83-3.81,0-8.63,0-13.44,0-16.64,0-26.27,9.62-26.29,26.2,0,5.48,0,11,0,16.74-1.19.06-2.27.15-3.36.15-11.85,0-23.7,0-35.55.05-2.59,0-3.89-.6-3.89-3.52q.09-91.5.07-183a6,6,0,0,1,.27-1c1-.06,2-.2,3.1-.2,24.7,0,49.4,0,74.1-.08,2.54,0,3.76.74,4.65,3.08,2.08,5.46,4.53,10.77,6.66,16.21,1.78,4.56,5,6.85,9.8,7.48A5.26,5.26,0,0,1,154.5,133c3,5.74,5.71,11.6,8.4,17.48,1.81,4,4.53,6.51,9.09,6.54s7.35-2.41,9.19-6.39c2.76-6,5.57-12,8.57-17.82.54-1.06,2-1.81,3.18-2.34,4.95-2.19,10-1,15.14-.66,15.78,1.15,28.33-8.31,32.25-23.66.19-.71.48-1.4.74-2.19h50.32a22.72,22.72,0,0,1,.29,2.57c0,9.86-.06,19.72.07,29.57,0,2.09-.58,3.17-2.53,3.85-2.46.87-4.83,2-7.22,3.05a10,10,0,0,0-6.43,9.67q-.13,19.27,0,38.54a10.1,10.1,0,0,0,6.69,9.88,1.43,1.43,0,0,0,.34.14C290.52,202.71,292.09,207.56,291.9,215.26Z"/><path class="cls-3" d="M140.61,227.15c-4.09.81-5.82,3.34-5.71,7.46.13,4.44,0,8.89,0,13.82H121.49c-16.63,0-26.27,9.63-26.29,26.2v16.74c-1.18.06-2.26.15-3.35.15-11.85,0-23.7,0-35.55.05-2.6,0-3.9-.6-3.89-3.52q.09-91.5.07-183a5.23,5.23,0,0,1,.27-1c1-.06,2-.19,3.1-.2,24.7,0,49.4,0,74.1-.07,2.54,0,3.76.73,4.65,3.07,2.08,5.46,4.53,10.77,6.66,16.21,1.78,4.56,5,6.85,9.8,7.48A5.29,5.29,0,0,1,154.5,133c3,5.74,5.71,11.6,8.39,17.48,1.82,4,4.54,6.52,9.1,6.55s7.35-2.41,9.19-6.4c2.75-6,5.57-12,8.56-17.82.54-1.05,2-1.8,3.19-2.33,4.94-2.19,10-1,15.14-.67,15.78,1.15,28.32-8.31,32.25-23.66.18-.71.47-1.4.74-2.19h50.32a25.46,25.46,0,0,1,.29,2.58c0,9.85-.06,19.71.06,29.56,0,2.09-.57,3.17-2.53,3.86-2.46.86-4.82,2-7.21,3a10,10,0,0,0-6.43,9.67q-.15,19.27,0,38.55a10.07,10.07,0,0,0,6.69,9.87,2.07,2.07,0,0,0,.34.15c7.94,1.51,9.51,6.36,9.31,14.06-.59,23.81-.29,47.65-.14,71.47,0,3.78-1.07,4.94-4.87,4.87-11.35-.23-22.7-.08-34.06-.07h-3.88c0-5.82,0-11.28,0-16.74,0-16.81-9.6-26.34-26.51-26.36H209.18c0-7.54.17-14.73-.05-21.9-.18-5.7-3.64-9.07-9.37-9.79-13.93-1.73-19.89-7.69-21.71-21.71-.72-5.59-3.68-9.14-8.9-9.39a122.21,122.21,0,0,0-19,.3c-8.05.87-13.94,7.35-14.89,15.44a77.39,77.39,0,0,0-.27,8.21c0,3.8,1.76,6.12,5.64,6.62Q140.59,221.67,140.61,227.15Z"/><path class="cls-1" d="M105,294.8c.06-8.35-.39-16.79.35-25,.66-7.37,6.11-12.07,12.34-12.09q33.51-.06,67,0,20.4,0,40.81,0c8.65,0,13.36,5.17,14.18,16.75.48,6.72-.16,13.58-.3,20.38Z"/><path class="cls-3" d="M154.85,92.36H52.46c0-12.63,0-25.06,0-37.5,0-2.57,2-2.42,3.75-2.42,13.34,0,26.68,0,40,0,7.4,0,7.48,0,10.23,6.86,5.71,14.17,6.25,13.92,20.83,13.77,8.85-.09,17.7,0,26.55,0a5.92,5.92,0,0,1,1,.24Z"/><path class="cls-3" d="M291.68,92.41H241c-1.79-3.6-3.17-7.37-5.39-10.55S230.3,76,227.45,73c6.52-1.56,7.64-7.8,9.9-13.14,3.14-7.4,3.11-7.42,11-7.42,13.09,0,26.18.1,39.28,0,3.08,0,4.14.94,4.1,4.07C291.59,68.3,291.68,80.13,291.68,92.41Z"/><path class="cls-4" d="M193,239q0,4.47,0,8.94c-3.72.15-7.45.39-11.17.42q-13.65.09-27.31,0c-5.82,0-8.18-2.38-8.34-8.13-.06-1.87-.12-3.74,0-5.61.27-4.12-1.48-6.67-5.57-7.52l0-10.93c4.06-.54,5.55-3,5.65-6.92.3-11.92,1.48-13,13.47-12.61a8.33,8.33,0,0,1,1.1.16,33.52,33.52,0,0,0,4.43,19.26c5,8.53,12.3,14.05,22.26,15.86C192.48,232.86,193,233.83,193,239Z"/><path class="cls-1" d="M191.79,121.66c-13,.08-25.92.23-38.88.14a5,5,0,0,1-3.76-2.25c-2.64-5.53-4.9-11.23-7.62-17.64h58.24Z"/><path class="cls-3" d="M189.21,73.81c12.44-3.76,22,2.09,31.36,8.78,3.5,2.5,6.41,5.33,7.92,9.8-1.07.07-1.78.15-2.49.16H189.21Z"/><path class="cls-4" d="M193,248q0-4.49,0-9c0-5.2-.55-6.18-5.53-7.08-10-1.81-17.21-7.33-22.26-15.85a33.58,33.58,0,0,1-4.44-19.27h6c2.49,17.94,12.45,28.93,31.07,31.14,0,4.79.14,9.27,0,13.74C197.74,244.79,196.28,247.18,193,248Z"/><path class="cls-3" d="M228.8,103.8c-1,10.15-13.56,17.58-23.66,13.89,1.7-4.1,3.31-8.24,5.16-12.27a3.32,3.32,0,0,1,2.46-1.55C218.1,103.73,223.44,103.8,228.8,103.8Z"/><path class="cls-5" d="M177.58,92.42H166.49V73.23h11.09Z"/><path class="cls-4" d="M172.07,143.55c-2.25-4.77-4.1-8.67-6.1-12.9h12.21Z"/><path class="cls-6" d="M200,43.66H143.51V29.15l.79-.81,55.81,0Q200.07,36,200,43.66Z"/><polygon class="cls-1" points="314.71 4.51 313.56 339.49 332.89 336.76 339.94 311.63 339.94 21.29 336.19 11.46 314.71 4.51"/><path class="cls-2" d="M302.94,0c7.14,0,14,0,20.78,0,12.84,0,20.39,7.61,20.39,20.51q0,120.66,0,241.31c0,5.57-.95,7-5.54,8.21C333.73,269,333,268,333,262.49V21.41c0-7.61-2.42-10-9.67-9.83-1.37,0-2.74-.12-4.11-.12H21.32c-7.91,0-10.1,2.22-10.1,10.26V322.19c0,8.15,2.34,10.5,10.43,10.5h297.1c1.5,0,3-.1,4.49-.15,6.54.39,9.68-2.54,9.7-9.17,0-11.7.12-23.39-.05-35.09-.05-4,1.41-6.41,5.35-7.22,5.48,2.07,5.88,2.67,5.88,8.9v30.57c0,14-3,18.55-15.6,23.4H14.13c-.82-.47-1.6-1-2.46-1.4-7.32-3.25-11.06-9-11.61-16.87-.07-1,0-2,0-3Q0,171.85,0,21C0,14.75,1.43,9.2,6.2,4.83A18.79,18.79,0,0,1,19.56,0C26.65.05,33.73,0,41.2,0"/><path class="cls-2" d="M313.41,171.35c0,2.61.13,5.23,0,7.83-.25,4-2.26,6.07-5.58,6.17-3.54.09-5.62-1.53-5.83-5.74-.29-5.8-.07-11.64.21-17.46.14-3,2.06-4.62,5.18-4.72,3.29-.11,5.28,1.55,5.71,4.64s.35,6.18.49,9.28Z"/><path class="cls-2" d="M29.32,32.53c-3.65-.06-6.27-2.65-6.1-6,.15-3.07,2.94-5.3,6.5-5.2s6.1,2.62,5.94,5.77S32.79,32.58,29.32,32.53Z"/><path class="cls-2" d="M314.86,21.29c3.51.06,6.21,2.57,6.07,5.63-.16,3.44-2.85,5.74-6.54,5.6-3.35-.12-6.05-2.82-5.89-5.89S311.27,21.23,314.86,21.29Z"/><path class="cls-7" d="M315.76,309.45c3.56,0,6.11,2.39,6,5.6a5.83,5.83,0,0,1-6.15,5.61,5.68,5.68,0,0,1-5.9-5.78C309.77,311.35,311.91,309.43,315.76,309.45Z"/><path class="cls-2" d="M29.31,311.63c3.76,0,6.47,2.4,6.36,5.71-.1,2.7-3.15,5.46-6.1,5.52s-6.23-2.73-6.36-5.65S25.82,311.66,29.31,311.63Z"/><path class="cls-7" d="M172.2,52.87c-9.7,0-19.43.34-29.11-.12-5.84-.28-9-4.43-9.17-10.3-.09-4.49-.08-9,0-13.46.11-6,4.34-10.55,10.34-10.6q27.86-.2,55.71,0c6,.05,10.14,4.67,10.26,10.67.07,3.62,0,7.23,0,10.85,0,9.44-3.68,12.43-13.21,12.52C188.82,52.51,172.2,53,172.2,52.87ZM145.89,29.66l-.67.65V41.76h47.71l5.84.37V29.68H193Z"/><path class="cls-2" d="M289.73,192c-2.49-.6-3.12-2.27-3.08-4.75.14-8.22.62-16.51-.11-24.67-.65-7.23,1.55-11.29,8.67-13.16,5.7-1.5,7.85-5.89,7.84-11.69-.07-27.32,0-54.63,0-81.94,0-9.06-5.2-14.73-14.16-14.83-16-.18-31.93-.09-47.89,0-5.06,0-8.83,2.22-10.81,7.11-1.54,3.81-3.06,7.65-4.94,11.29a4.85,4.85,0,0,1-3.5,2.33c-33.05.12-66.1.08-99.15.15a3.56,3.56,0,0,1-3.85-2.64c-1.36-3.48-3-6.86-4.32-10.35-2.16-5.65-6.32-8-12.2-7.93-15.34.06-30.68,0-46,0-9.69,0-15,5.47-15,15.12q0,115.8-.1,231.6c0,7.78,5.17,15.34,15.36,15.25,38.54-.32,77.08-.13,115.61-.13H288c9.7,0,15-5.3,15-15,0-25.07-.46-50.15.23-75.2C303.53,201.79,300.73,194.63,289.73,192ZM237.35,59.85c3.15-7.4,3.11-7.42,11-7.42,13.09,0,26.19.09,39.28,0,3.08,0,4.14.94,4.1,4.07-.14,11.83-.06,23.66-.06,35.93H241c-1.79-3.59-3.17-7.36-5.4-10.54S230.3,76,227.45,73C234,71.42,235.09,65.19,237.35,59.85Zm-48.14,14c12.44-3.76,22,2.09,31.36,8.78,3.5,2.49,6.42,5.33,7.93,9.79-1.07.07-1.78.16-2.49.16h-36.8Zm39.6,30c-1,10.16-13.57,17.59-23.67,13.9,1.7-4.1,3.32-8.24,5.16-12.27a3.32,3.32,0,0,1,2.47-1.55C218.1,103.72,223.45,103.79,228.81,103.79Zm-74.68,15.39a3.73,3.73,0,0,1-2.82-1.72c-2-4.26-3.67-8.64-5.71-13.57h53c-2.12,5-3.92,9.58-6,14-.37.77-2,1.26-3.05,1.34a60.36,60.36,0,0,1-6.3-.15C173.54,119.14,163.83,119.25,154.13,119.18Zm24.05,11.47c-2,4.14-3.84,8.1-6.1,12.89-2.26-4.76-4.1-8.66-6.11-12.89ZM166.49,73.23h11.1V92.42h-11.1Zm-114-18.37c0-2.57,2-2.42,3.76-2.42,13.34,0,26.67,0,40,0,7.4,0,7.48,0,10.23,6.86,5.71,14.17,6.25,13.92,20.83,13.77,8.85-.09,17.7,0,26.55,0a5.41,5.41,0,0,1,1,.23v19H52.46C52.46,79.73,52.44,67.3,52.47,54.86ZM237.3,286.34v5H106.85v-5c.06-5.94-.38-11.93.34-17.79.64-5.24,5.93-8.58,12-8.59q32.52,0,65,0h39.62c8.39,0,13,3.68,13.76,11.9C238.05,276.63,237.43,281.51,237.3,286.34ZM134.91,234.6c.12,4.45,0,8.9,0,13.83-3.81,0-8.63,0-13.44,0-16.64,0-26.27,9.62-26.29,26.2,0,5.48,0,11,0,16.74-1.19.06-2.27.15-3.36.15-11.85,0-23.7,0-35.55.05-2.59,0-3.89-.6-3.89-3.52q.09-91.5.07-183a6,6,0,0,1,.27-1c1-.06,2-.2,3.1-.2,24.7,0,49.4,0,74.1-.08,2.54,0,3.76.74,4.65,3.08,2.08,5.46,4.53,10.77,6.66,16.21,1.78,4.56,5,6.85,9.8,7.48A5.26,5.26,0,0,1,154.5,133c3,5.74,5.71,11.6,8.4,17.48,1.81,4,4.53,6.51,9.09,6.54s7.35-2.41,9.19-6.39c2.76-6,5.57-12,8.57-17.82.54-1.06,2-1.81,3.18-2.34,4.95-2.19,10-1,15.14-.66,15.78,1.15,28.33-8.31,32.25-23.66.19-.71.48-1.4.74-2.19h50.32a22.72,22.72,0,0,1,.29,2.57c0,9.86-.06,19.72.07,29.57,0,2.09-.58,3.17-2.53,3.85-2.46.87-4.83,2-7.22,3.05a10,10,0,0,0-6.43,9.67q-.13,19.27,0,38.54a10.1,10.1,0,0,0,6.69,9.88,1.43,1.43,0,0,0,.34.14c7.94,1.52,9.51,6.37,9.32,14.07-.6,23.81-.29,47.65-.14,71.47,0,3.78-1.07,4.94-4.88,4.86-11.35-.23-22.7-.07-34-.06h-3.89c0-5.82,0-11.28,0-16.75,0-16.81-9.6-26.33-26.51-26.35H209.19c0-7.54.16-14.73-.06-21.9-.17-5.7-3.64-9.07-9.37-9.79-13.93-1.73-19.88-7.69-21.7-21.71-.73-5.6-3.69-9.14-8.91-9.39a122.07,122.07,0,0,0-19,.3c-8.06.87-14,7.34-14.89,15.43a77.67,77.67,0,0,0-.28,8.22m11.29-.3c.3-11.92,1.48-13,13.47-12.61a8.33,8.33,0,0,1,1.1.16h6c2.49,17.94,12.45,28.93,31.07,31.13,0,4.8.15,9.28,0,13.75-.13,3.07-1.59,5.46-4.86,6.26-3.72.15-7.45.39-11.17.42q-13.65.09-27.31,0c-5.82,0-8.18-2.38-8.34-8.13-.06-1.87-.12-3.74,0-5.61"/><polygon class="cls-2" points="332.95 262.49 332.89 288.28 344.12 287.98 344.11 261.84 332.95 262.49"/></g></g></svg>