<svg xmlns="http://www.w3.org/2000/svg" viewBox="0 0 383.16 294.26"><defs><style>.cls-1{fill:#1a8aff;}</style></defs><title>Ресурс 1</title><g id="Слой_2" data-name="Слой 2"><g id="Слой_1-2" data-name="Слой 1"><path class="cls-1" d="M0,67c.68-1.79,1.4-3.57,2.05-5.38,4.46-12.46,13.5-21.07,24.08-28.23C44.87,20.71,66,13.69,87.78,8.67c35.26-8.13,71-10.06,107-7.78,28.22,1.8,55.9,6.4,82.61,16,15.32,5.49,29.87,12.45,42.26,23.28,6.95,6.08,12.68,13.13,15.52,22,4.3,13.52.82,25.54-7.8,36.35-6.07,7.62-13.71,13.41-22,18.34a4.27,4.27,0,0,0-2.49,4.4c.16,3.72,0,7.45,0,11.26,24.55-3.82,44.54,5.46,62.39,20.74A54.76,54.76,0,0,1,382.66,179c1.43,4.67-.28,8.63-4.34,10.08a7.21,7.21,0,0,1-9.7-5.1c-4.61-17.06-30.1-36.57-53.86-37.47-.5,0-1,0-1.5,0-9.27.32-10.3,1.35-10.3,10.4,0,5.37.11,10.74,0,16.1-.06,2.15.79,3.19,2.5,4.41,6,4.26,12.25,8.28,17.47,13.35,19,18.38,18.86,41.7.08,60.26-12.4,12.25-27.67,19.74-43.78,25.71C255.55,285.46,231,290.06,206,292.44a388.8,388.8,0,0,1-76.58-.14c-30.38-3.08-60.05-9.16-87.79-22.51-11.41-5.49-22-12.26-30.44-21.9a44.41,44.41,0,0,1-10-18.13A14.81,14.81,0,0,0,0,227.23V214.5c2.41-5.22,4.3-10.78,7.35-15.59,5.93-9.34,14.66-15.85,24.08-21.38a5,5,0,0,0,2.85-5c-.12-14.95-.42-29.92.11-44.85.23-6.69-1.58-10.59-7.57-14.14C16.21,107.26,7.54,98.63,2.71,86.84,1.75,84.49.9,82.09,0,79.72Zm174.69,64.82c6.34-.39,18.69-.85,31-1.94,25.17-2.24,49.79-7.15,73.3-16.64,13.35-5.39,26.14-11.86,35.85-23s9.6-22.81-.08-33.95c-6-6.88-13.38-11.94-21.36-16.13-24.73-13-51.49-19.11-78.93-22.46A371,371,0,0,0,113,19.08c-21.85,3.34-43.2,8.6-63.29,18.09C38.38,42.53,27.63,48.84,20.06,59.26c-6.79,9.35-6.94,18.73-.07,28A58.94,58.94,0,0,0,30.12,97.62c10.27,8.33,22.19,13.69,34.55,18.09C98.31,127.69,133.23,131.52,174.69,131.81ZM288,165.11c-3.87,1.65-7.23,3.25-10.7,4.54-22.3,8.24-45.62,11.39-69.11,13.29-35,2.82-70,2.19-104.87-2.91-18.38-2.69-36.55-6.32-53.39-14.68-.12-.06-.38.17-.71.34,0,4.56.27,9.19-.08,13.78-.3,3.91,1.14,6.73,4.46,8.19,7.71,3.39,15.37,7.12,23.41,9.47,18.85,5.5,38.34,7.52,57.86,9.09,4.85.39,7.74,3.58,7.44,8.05-.27,4.15-3.65,7-8.21,6.89-2.62-.09-5.22-.41-7.83-.66-20.73-2-41.35-4.7-61.23-11.25-5.26-1.74-10.34-4-15.82-6.15,0,4.07.43,8-.1,11.75-.88,6.41,2.11,10.1,7.49,12.57a49.94,49.94,0,0,0,6.09,2.82c8.42,2.58,16.8,5.47,25.39,7.38,21,4.68,42.36,6.49,63.82,7.16,35,1.1,69.81-.64,104.05-8.65,9.69-2.27,19.3-5,27.67-10.73,1.68-1.14,3.95-2.91,4.09-4.54.5-5.86.2-11.79.2-18.17a136.75,136.75,0,0,1-41,12.82c-14.38,2.28-28.88,3.89-43.36,5.59-4.94.57-8.59-2.61-8.84-7s2.83-7.46,7.68-7.88c2.61-.23,5.22-.44,7.83-.69,18.63-1.73,37.18-4.09,55.05-9.86,6.56-2.13,12.76-5.42,19-8.5,2.66-1.31,4-3.7,3.84-7.08C287.76,175.25,288,170.38,288,165.11ZM34.22,193.52c-6.52,4.57-11.74,9.12-15.47,15.17C12.8,218.36,13.85,228,22,237.51c8.49,9.88,19.56,16.1,31.29,21.17,31.55,13.63,64.91,18.69,99,20.2a363.35,363.35,0,0,0,72.34-3.78c22.21-3.48,43.89-8.87,64.24-18.74,9.92-4.82,19.25-10.54,26.45-19.13,12-14.32,5.65-36.61-12.32-42.86,0,8.29-.08,16.52,0,24.74.09,6.29-2.12,11.58-7,15.45-3.56,2.85-7.33,5.92-11.54,7.42-11.2,4-22.52,7.94-34.09,10.59-21.68,5-43.84,6.63-66.05,7.24-36.25,1-72.28-.85-107.69-9.38-11.87-2.87-23.51-6.52-33.5-14-6.07-4.54-9.34-10.36-9-18.24S34.22,202.32,34.22,193.52Zm15-66.81c0,4.65.3,9.75-.09,14.79-.33,4.26,1.37,7.16,4.92,8.74,7.13,3.16,14.23,6.66,21.69,8.77,27.54,7.78,55.88,10,84.35,10.43,32.24.54,64.31-1.38,95.81-8.87,9.81-2.33,19.55-5.07,28-10.92,1.57-1.08,3.71-2.77,3.81-4.3.43-6.35.18-12.76.18-18.62C208.11,153.74,128.85,153.71,49.2,126.71Z"/><path class="cls-1" d="M161.82,47.31c27.16.45,47.34,1.46,66.78,7.71a53.29,53.29,0,0,1,14.94,7.34c8.3,6,8.09,15.72,0,22.15-7.43,5.93-16.42,8.33-25.46,10.06-34.06,6.51-68.19,6.65-102.12-.79a71.91,71.91,0,0,1-20.08-7.7c-11.53-6.62-11.33-18.54,0-25.63,9.37-5.89,20-8.29,30.76-9.71C140.59,48.88,154.66,48,161.82,47.31Zm-58.17,26.2a34.64,34.64,0,0,0,4,2,88,88,0,0,0,10.27,3.36C150,86,182.2,86.05,214.42,80c6.49-1.22,12.75-3.71,19.92-5.86C212.34,59,124.71,58.91,103.65,73.51Z"/><path class="cls-1" d="M168.71,222.21a7.44,7.44,0,0,1-7.68-7.4,7.59,7.59,0,0,1,7.32-7.45,7.46,7.46,0,0,1,7.63,7.46A7.31,7.31,0,0,1,168.71,222.21Z"/></g></g></svg>